<svg xmlns="http://www.w3.org/2000/svg" viewBox="0 0 512 512"><defs><linearGradient id="r" x1="0" y1="0" x2="1" y2="1"><stop stop-color="#ff334d"/><stop offset="1" stop-color="#c90024"/></linearGradient><linearGradient id="n" x1="0" y1="0" x2="1" y2="1"><stop stop-color="#172c66"/><stop offset="1" stop-color="#07163d"/></linearGradient></defs><path d="M348 70l55-45 39 104-62 61z" fill="url(#r)" stroke="#08163d" stroke-width="18" stroke-linejoin="round"/><path d="M82 266c-5-86 61-155 150-155h93c74 0 126 48 126 120v118c0 92-71 145-171 145H181C108 494 62 447 62 371z" fill="url(#r)" stroke="#08163d" stroke-width="18"/><path d="M82 250c10-73 66-119 142-119h113c70 0 112 38 112 108v31H82z" fill="url(#n)" stroke="#fff" stroke-width="12"/><path d="M101 169h93v105h-93zM238 150h102v124H238z" fill="#fff" stroke="#08163d" stroke-width="10"/><ellipse cx="147" cy="222" rx="43" ry="31" fill="#0b1d4d" stroke="#ff334d" stroke-width="11"/><ellipse cx="289" cy="220" rx="47" ry="34" fill="#0b1d4d" stroke="#ff334d" stroke-width="11"/><path d="M116 332l48-72 35 47 45-62 51 64 43-55 55 78-72 20H183z" fill="#08163d"/><path d="M118 330c26 25 59 36 101 36 44 0 79-13 108-40l26 44c-35 40-80 58-136 58-55 0-98-18-128-54z" fill="#fff" stroke="#08163d" stroke-width="10"/><path d="M149 345l28 48M187 353l24 40M229 356l18 36M271 351l-2 39M313 340l-15 45" stroke="#08163d" stroke-width="8"/><path d="M391 270c30 4 53 27 53 58v65c0 29-18 48-45 48h-20V270z" fill="#fff" stroke="#08163d" stroke-width="12"/><circle cx="414" cy="333" r="23" fill="#fff" stroke="#c90024" stroke-width="8"/><path d="M405 314c15 10 20 25 19 39M400 339c12 1 23 6 29 16" stroke="#c90024" stroke-width="5" fill="none"/><path d="M213 112h98l-9 55h-80z" fill="#fff" stroke="#08163d" stroke-width="10"/><text x="222" y="150" font-family="Arial Black,Impact,sans-serif" font-size="28" font-weight="900" fill="#c90024">9000</text><path d="M154 274l-33 13M196 267l-36 19M336 272l35 18" stroke="#08163d" stroke-width="12" stroke-linecap="round"/><circle cx="150" cy="286" r="9" fill="#fff"/><circle cx="350" cy="286" r="9" fill="#fff"/></svg>